<?xml version="1.0" encoding="UTF-8"?>
<svg xmlns="http://www.w3.org/2000/svg" xmlns:xlink="http://www.w3.org/1999/xlink" width="50px" height="45px" viewBox="0 0 50 45" version="1.1">
<g id="surface1">
<path style=" stroke:none;fill-rule:nonzero;fill:rgb(98.823529%,93.72549%,99.607843%);fill-opacity:1;" d="M 0.40625 16.148438 C 0.40625 10.769531 0.40625 5.464844 0.40625 0.160156 C 16.898438 0.160156 33.386719 0.160156 49.894531 0.160156 C 49.894531 15.140625 49.894531 30.128906 49.894531 45.132812 C 33.40625 45.132812 16.90625 45.132812 0.40625 45.132812 C 0.40625 35.503906 0.40625 25.867188 0.40625 16.148438 M 42.816406 11.878906 C 42.84375 11.789062 42.871094 11.695312 42.984375 11.535156 C 43.257812 10.71875 43.53125 9.90625 43.835938 9.078125 C 43.835938 9.078125 43.839844 9.050781 43.839844 9.050781 C 43.839844 9.050781 43.820312 9.101562 43.714844 9.117188 C 43.382812 9.625 43.050781 10.132812 42.617188 10.671875 C 42.417969 10.910156 42.207031 11.136719 42.015625 11.382812 C 40.335938 13.582031 38.402344 15.53125 36.117188 17.09375 C 35.804688 16.292969 35.5 15.492188 35.179688 14.691406 C 33.855469 11.371094 32.433594 8.101562 30.523438 5.0625 C 29.535156 3.488281 28.207031 2.308594 26.378906 1.824219 C 24.75 1.394531 23.085938 1.285156 21.429688 1.605469 C 20.894531 1.714844 20.40625 2.085938 19.78125 2.347656 C 19.625 2.515625 19.390625 2.660156 19.320312 2.863281 C 18.578125 5.082031 17.847656 7.308594 17.144531 9.546875 C 17.007812 9.972656 16.8125 10.074219 16.371094 10.101562 C 15.183594 10.164062 13.960938 10.171875 12.828125 10.472656 C 9.25 11.425781 6.921875 13.742188 6.21875 17.414062 C 5.542969 20.9375 6.851562 23.804688 9.660156 26.121094 C 10.015625 26.363281 10.371094 26.605469 10.726562 26.957031 C 10.660156 27.125 10.625 27.3125 10.527344 27.457031 C 9.390625 29.125 8.25 30.789062 7.027344 32.515625 C 7.21875 32.601562 7.410156 32.6875 7.691406 32.835938 C 7.90625 32.875 8.125 32.914062 8.4375 33.039062 C 10.46875 33.433594 12.40625 33.246094 14.214844 32.140625 C 15.582031 31.304688 16.519531 30.074219 17.554688 28.808594 C 18.128906 28.753906 18.703125 28.695312 19.40625 28.644531 C 22.59375 28.296875 25.640625 27.46875 28.664062 26.082031 C 29.292969 25.753906 29.921875 25.425781 30.648438 25.125 C 32.253906 26.957031 33.910156 28.742188 35.445312 30.628906 C 36.710938 32.1875 38.089844 33.414062 40.347656 33.382812 C 40.824219 33.226562 41.304688 33.074219 41.898438 32.914062 C 42.378906 32.601562 43.09375 32.496094 43.011719 31.574219 C 42.96875 31.5 42.925781 31.421875 42.882812 31.355469 C 42.882812 31.355469 42.890625 31.351562 42.894531 31.230469 C 42.773438 30.832031 42.671875 30.425781 42.527344 30.035156 C 41.488281 27.183594 39.699219 24.789062 37.894531 22.28125 C 37.679688 21.652344 37.464844 21.019531 37.257812 20.277344 C 37.25 20.207031 37.242188 20.132812 37.300781 19.984375 C 37.410156 19.859375 37.523438 19.734375 37.710938 19.554688 C 38.367188 18.777344 39.105469 18.058594 39.652344 17.214844 C 40.640625 15.703125 41.519531 14.117188 42.429688 12.554688 C 42.429688 12.554688 42.433594 12.566406 42.527344 12.515625 C 42.597656 12.320312 42.667969 12.121094 42.726562 11.917969 C 42.726562 11.917969 42.730469 11.929688 42.816406 11.878906 M 42.4375 37.003906 C 42.308594 36.996094 42.175781 37.003906 42.054688 36.980469 C 41.324219 36.859375 41.097656 37.183594 41.160156 37.886719 C 41.214844 38.421875 41.160156 38.96875 41.011719 39.527344 C 40.453125 39.527344 39.894531 39.527344 39.289062 39.527344 C 39.289062 38.652344 39.289062 37.902344 39.289062 37.125 C 38.8125 37.125 38.386719 37.125 37.957031 37.125 C 37.957031 39.191406 37.957031 41.191406 37.957031 43.226562 C 38.414062 43.226562 38.839844 43.226562 39.34375 43.226562 C 39.34375 42.386719 39.34375 41.59375 39.34375 40.773438 C 39.792969 40.773438 40.160156 40.804688 40.519531 40.765625 C 41.125 40.707031 41.382812 40.914062 41.324219 41.558594 C 41.277344 42.113281 41.316406 42.683594 41.316406 43.21875 C 41.847656 43.21875 42.273438 43.21875 42.730469 43.21875 C 42.730469 41.285156 42.730469 39.40625 42.71875 37.527344 C 42.71875 37.367188 42.605469 37.210938 42.4375 37.003906 M 9.957031 40.824219 C 10.296875 41.351562 10.691406 41.851562 10.957031 42.414062 C 11.367188 43.285156 12.003906 43.453125 12.875 43.199219 C 12.875 41.183594 12.875 39.164062 12.875 37.121094 C 12.398438 37.121094 11.972656 37.121094 11.449219 37.121094 C 11.449219 38.335938 11.449219 39.507812 11.449219 40.863281 C 10.746094 39.757812 10.160156 38.835938 9.570312 37.914062 C 8.949219 36.941406 8.835938 36.898438 7.683594 37.175781 C 7.683594 39.199219 7.683594 41.222656 7.683594 43.230469 C 8.148438 43.230469 8.554688 43.230469 9.019531 43.230469 C 9.019531 42.007812 9.019531 40.820312 9.019531 39.636719 C 9.066406 39.621094 9.113281 39.601562 9.160156 39.585938 C 9.40625 39.964844 9.652344 40.347656 9.957031 40.824219 M 16.058594 38.8125 C 16.058594 40.289062 16.058594 41.761719 16.058594 43.238281 C 16.574219 43.238281 16.976562 43.238281 17.472656 43.238281 C 17.472656 42.46875 17.472656 41.734375 17.472656 40.820312 C 17.945312 41.429688 18.367188 41.839844 18.628906 42.332031 C 19.164062 43.363281 20.007812 43.394531 21.066406 43.207031 C 20.371094 42.359375 19.722656 41.570312 19.058594 40.765625 C 19.308594 40.589844 19.507812 40.472656 19.675781 40.328125 C 20.28125 39.808594 20.457031 39.074219 20.1875 38.414062 C 19.988281 37.921875 19.484375 37.335938 19.011719 37.222656 C 18.082031 37.003906 17.082031 37.082031 16.058594 37.03125 C 16.058594 37.671875 16.058594 38.164062 16.058594 38.8125 M 26.929688 40.6875 C 26.929688 41.535156 26.929688 42.386719 26.929688 43.269531 C 27.671875 43.269531 28.320312 43.308594 28.960938 43.265625 C 30.433594 43.160156 31.609375 42.035156 31.789062 40.601562 C 31.980469 39.078125 31.160156 37.632812 29.71875 37.261719 C 28.84375 37.039062 27.898438 37.085938 26.929688 37.007812 C 26.929688 38.296875 26.929688 39.414062 26.929688 40.6875 M 36.46875 38.03125 C 35.328125 36.839844 33.882812 37.054688 32.457031 37.101562 C 32.457031 39.1875 32.457031 41.207031 32.457031 43.226562 C 34.957031 43.449219 36.226562 43.042969 36.917969 41.703125 C 37.554688 40.457031 37.457031 39.230469 36.46875 38.03125 M 24.636719 43.273438 C 25.367188 43.0625 25.980469 42.621094 26.019531 41.851562 C 26.097656 40.277344 26.042969 38.699219 26.042969 37.113281 C 25.632812 37.113281 25.230469 37.113281 24.851562 37.113281 C 24.8125 37.175781 24.789062 37.199219 24.789062 37.222656 C 24.777344 38.394531 24.777344 39.566406 24.75 40.738281 C 24.730469 41.65625 24.425781 42.015625 23.726562 42.011719 C 23.027344 42.007812 22.75 41.652344 22.746094 40.726562 C 22.738281 39.53125 22.742188 38.335938 22.742188 37.113281 C 22.234375 37.113281 21.808594 37.113281 21.320312 37.113281 C 21.320312 38.304688 21.316406 39.449219 21.320312 40.597656 C 21.324219 42.828125 22.332031 43.683594 24.636719 43.273438 M 5.367188 42.046875 C 5.558594 42.4375 5.746094 42.832031 5.945312 43.246094 C 6.382812 43.246094 6.84375 43.246094 7.382812 43.246094 C 6.636719 41.390625 5.910156 39.585938 5.191406 37.777344 C 5.023438 37.347656 4.878906 37.035156 4.285156 37.035156 C 3.675781 37.039062 3.464844 37.316406 3.324219 37.808594 C 3.246094 38.082031 3.109375 38.34375 3.003906 38.609375 C 2.390625 40.140625 1.777344 41.671875 1.152344 43.230469 C 2.472656 43.332031 2.472656 43.332031 3.148438 42.027344 C 3.832031 42.027344 4.53125 42.027344 5.367188 42.046875 M 44.320312 39.777344 C 43.871094 40.921875 43.417969 42.0625 42.945312 43.257812 C 43.503906 43.257812 43.941406 43.257812 44.453125 43.257812 C 44.511719 41.972656 45.363281 41.902344 46.34375 42.015625 C 46.625 42.050781 46.914062 42.023438 47.21875 42.023438 C 47.394531 42.449219 47.5625 42.855469 47.710938 43.21875 C 48.214844 43.21875 48.65625 43.21875 49.175781 43.21875 C 48.375 41.246094 47.628906 39.335938 46.8125 37.457031 C 46.71875 37.242188 46.242188 37.085938 45.953125 37.097656 C 45.699219 37.113281 45.347656 37.347656 45.230469 37.574219 C 44.898438 38.246094 44.652344 38.96875 44.320312 39.777344 M 13.742188 40.53125 C 13.742188 41.433594 13.742188 42.335938 13.742188 43.238281 C 14.246094 43.238281 14.652344 43.238281 15.085938 43.238281 C 15.085938 41.183594 15.085938 39.167969 15.085938 37.125 C 14.628906 37.125 14.210938 37.125 13.742188 37.125 C 13.742188 38.246094 13.742188 39.3125 13.742188 40.53125 Z M 13.742188 40.53125 "/>
<path style=" stroke:none;fill-rule:nonzero;fill:rgb(37.647059%,1.176471%,58.823529%);fill-opacity:1;" d="M 17.417969 28.792969 C 16.519531 30.074219 15.582031 31.304688 14.214844 32.140625 C 12.40625 33.246094 10.46875 33.433594 8.398438 32.988281 C 8.359375 32.9375 8.375 32.917969 8.445312 32.921875 C 9.175781 32.851562 9.863281 32.855469 10.507812 32.691406 C 13.707031 31.882812 15.84375 29.804688 17.078125 26.804688 C 17.957031 24.671875 18.699219 22.480469 19.472656 20.304688 C 19.539062 20.113281 19.363281 19.832031 19.300781 19.535156 C 19.351562 19.296875 19.390625 19.117188 19.445312 18.949219 C 19.855469 17.648438 19.699219 17.386719 18.363281 17.097656 C 18.3125 17.085938 18.257812 17.09375 18.148438 17.066406 C 17.523438 16.933594 16.957031 16.777344 16.382812 16.730469 C 15.847656 16.6875 15.300781 16.761719 14.703125 16.78125 C 11.996094 17.355469 11.171875 19.828125 12.945312 21.902344 C 12.828125 22.273438 12.710938 22.585938 12.542969 22.894531 C 12.320312 22.835938 12.148438 22.785156 11.96875 22.679688 C 11.859375 22.476562 11.761719 22.320312 11.652344 22.179688 C 9.769531 19.722656 10.703125 16.570312 13.609375 15.511719 C 15.125 14.960938 16.652344 14.976562 18.207031 15.285156 C 21.496094 15.933594 24.445312 17.378906 27.238281 19.179688 C 30.433594 21.238281 33.183594 23.820312 35.628906 26.710938 C 37.371094 28.769531 39.039062 30.90625 40.230469 33.363281 C 38.089844 33.414062 36.710938 32.1875 35.445312 30.628906 C 33.910156 28.742188 32.253906 26.957031 30.574219 25.0625 C 30.207031 24.714844 29.90625 24.429688 29.582031 24.097656 C 28.941406 23.695312 28.570312 22.621094 27.527344 23.335938 C 27.253906 22.976562 27.007812 22.886719 26.578125 23.019531 C 25.371094 23.390625 24.144531 23.707031 22.917969 24.003906 C 21.929688 24.242188 20.921875 24.414062 19.859375 24.613281 C 19.28125 24.53125 18.933594 24.703125 18.808594 25.296875 C 18.746094 25.574219 18.707031 25.796875 18.628906 26.054688 C 18.402344 26.539062 18.226562 26.988281 18.003906 27.46875 C 17.777344 27.933594 17.601562 28.363281 17.417969 28.792969 M 26.074219 21.1875 C 24.574219 20.199219 23.070312 19.210938 21.492188 18.167969 C 20.765625 20.132812 20.121094 21.878906 19.4375 23.726562 C 22.113281 23.476562 24.628906 22.957031 27.191406 22.046875 C 26.773438 21.722656 26.46875 21.488281 26.074219 21.1875 Z M 26.074219 21.1875 "/>
<path style=" stroke:none;fill-rule:nonzero;fill:rgb(85.098039%,1.176471%,98.823529%);fill-opacity:1;" d="M 37.898438 22.40625 C 39.699219 24.789062 41.488281 27.183594 42.527344 30.035156 C 42.671875 30.425781 42.773438 30.832031 42.84375 31.273438 C 42.699219 31.1875 42.59375 31.070312 42.515625 30.941406 C 40.546875 27.589844 38.210938 24.496094 35.503906 21.734375 C 33.65625 19.847656 31.648438 18.089844 29.539062 16.511719 C 25.40625 13.421875 20.835938 11.519531 15.523438 12.070312 C 13.851562 12.242188 12.25 12.679688 10.84375 13.617188 C 8.792969 14.984375 7.777344 16.910156 7.886719 19.4375 C 7.984375 21.628906 8.757812 23.46875 10.378906 24.980469 C 10.113281 25.363281 9.859375 25.695312 9.609375 26.03125 C 6.851562 23.804688 5.542969 20.9375 6.21875 17.414062 C 6.921875 13.742188 9.25 11.425781 12.828125 10.472656 C 13.960938 10.171875 15.183594 10.164062 16.371094 10.101562 C 16.8125 10.074219 17.007812 9.972656 17.144531 9.546875 C 17.847656 7.308594 18.578125 5.082031 19.320312 2.863281 C 19.390625 2.660156 19.625 2.515625 19.886719 2.347656 C 20.027344 2.355469 20.0625 2.359375 20.117188 2.40625 C 20.324219 2.527344 20.511719 2.605469 20.671875 2.738281 C 20.375 3.699219 20.101562 4.613281 19.832031 5.527344 C 19.371094 7.105469 18.910156 8.683594 18.433594 10.316406 C 19.117188 10.445312 19.742188 10.5625 20.414062 10.714844 C 20.855469 10.875 21.253906 10.992188 21.703125 11.128906 C 22.035156 11.238281 22.308594 11.335938 22.632812 11.457031 C 23.039062 11.589844 23.390625 11.699219 23.785156 11.847656 C 24.59375 12.261719 25.367188 12.632812 26.128906 13.019531 C 26.929688 13.425781 27.722656 13.851562 28.515625 14.269531 C 28.511719 14.269531 28.511719 14.257812 28.511719 14.292969 C 28.542969 14.375 28.589844 14.398438 28.675781 14.445312 C 30.152344 15.53125 31.589844 16.578125 33.054688 17.667969 C 33.6875 18.238281 34.292969 18.773438 34.917969 19.347656 C 35.402344 19.828125 35.855469 20.269531 36.332031 20.753906 C 36.871094 21.335938 37.382812 21.871094 37.898438 22.40625 Z M 37.898438 22.40625 "/>
<path style=" stroke:none;fill-rule:nonzero;fill:rgb(72.941176%,0%,89.019608%);fill-opacity:1;" d="M 10.398438 24.929688 C 8.757812 23.46875 7.984375 21.628906 7.886719 19.4375 C 7.777344 16.910156 8.792969 14.984375 10.84375 13.617188 C 12.25 12.679688 13.851562 12.242188 15.523438 12.070312 C 20.835938 11.519531 25.40625 13.421875 29.539062 16.511719 C 31.648438 18.089844 33.65625 19.847656 35.503906 21.734375 C 38.210938 24.496094 40.546875 27.589844 42.515625 30.941406 C 42.59375 31.070312 42.699219 31.1875 42.839844 31.332031 C 42.890625 31.351562 42.882812 31.355469 42.882812 31.394531 C 42.917969 31.511719 42.953125 31.589844 42.992188 31.664062 C 43.09375 32.496094 42.378906 32.601562 41.820312 32.871094 C 41.363281 32.171875 41.019531 31.5 40.609375 30.867188 C 38.027344 26.90625 34.964844 23.367188 31.347656 20.316406 C 28.164062 17.628906 24.75 15.363281 20.6875 14.246094 C 18.121094 13.539062 15.59375 13.441406 13.007812 14.386719 C 8.753906 15.941406 8.746094 20.855469 11.351562 23.570312 C 11.34375 23.695312 11.34375 23.765625 11.296875 23.863281 C 11.019531 24.234375 10.785156 24.582031 10.511719 24.925781 C 10.476562 24.925781 10.398438 24.929688 10.398438 24.929688 Z M 10.398438 24.929688 "/>
<path style=" stroke:none;fill-rule:nonzero;fill:rgb(61.176471%,0.392157%,78.823529%);fill-opacity:1;" d="M 11.355469 23.519531 C 8.746094 20.855469 8.753906 15.941406 13.007812 14.386719 C 15.59375 13.441406 18.121094 13.539062 20.6875 14.246094 C 24.75 15.363281 28.164062 17.628906 31.347656 20.316406 C 34.964844 23.367188 38.027344 26.90625 40.609375 30.867188 C 41.019531 31.5 41.363281 32.171875 41.761719 32.875 C 41.304688 33.074219 40.824219 33.226562 40.289062 33.371094 C 39.039062 30.90625 37.371094 28.769531 35.628906 26.710938 C 33.183594 23.820312 30.433594 21.238281 27.238281 19.179688 C 24.445312 17.378906 21.496094 15.933594 18.207031 15.285156 C 16.652344 14.976562 15.125 14.960938 13.609375 15.511719 C 10.703125 16.570312 9.769531 19.722656 11.652344 22.179688 C 11.761719 22.320312 11.859375 22.476562 11.925781 22.707031 C 11.714844 23.03125 11.535156 23.273438 11.355469 23.519531 Z M 11.355469 23.519531 "/>
<path style=" stroke:none;fill-rule:nonzero;fill:rgb(61.176471%,0%,78.823529%);fill-opacity:1;" d="M 7.601562 32.773438 C 7.410156 32.6875 7.21875 32.601562 7.125 32.484375 C 7.550781 32.347656 7.875 32.238281 8.257812 32.125 C 9.234375 31.511719 10.257812 31.011719 11.058594 30.269531 C 13.550781 27.953125 15.140625 25.011719 16.46875 21.921875 C 16.945312 20.808594 17.316406 19.652344 17.769531 18.511719 C 17.835938 18.511719 17.867188 18.511719 17.914062 18.554688 C 18.292969 18.882812 18.644531 19.160156 18.96875 19.496094 C 18.066406 21.671875 17.273438 23.839844 16.285156 25.914062 C 15.425781 27.71875 14.144531 29.246094 12.660156 30.613281 C 11.417969 31.761719 9.988281 32.4375 8.304688 32.773438 C 8.027344 32.773438 7.816406 32.773438 7.601562 32.773438 Z M 7.601562 32.773438 "/>
<path style=" stroke:none;fill-rule:nonzero;fill:rgb(40%,3.137255%,58.823529%);fill-opacity:1;" d="M 9.933594 40.777344 C 9.652344 40.347656 9.40625 39.964844 9.160156 39.585938 C 9.113281 39.601562 9.066406 39.621094 9.019531 39.636719 C 9.019531 40.820312 9.019531 42.007812 9.019531 43.230469 C 8.554688 43.230469 8.148438 43.230469 7.683594 43.230469 C 7.683594 41.222656 7.683594 39.199219 7.683594 37.175781 C 8.835938 36.898438 8.949219 36.941406 9.570312 37.914062 C 10.160156 38.835938 10.746094 39.757812 11.449219 40.863281 C 11.449219 39.507812 11.449219 38.335938 11.449219 37.121094 C 11.972656 37.121094 12.398438 37.121094 12.875 37.121094 C 12.875 39.164062 12.875 41.183594 12.875 43.199219 C 12.003906 43.453125 11.367188 43.285156 10.957031 42.414062 C 10.691406 41.851562 10.296875 41.351562 9.933594 40.777344 Z M 9.933594 40.777344 "/>
<path style=" stroke:none;fill-rule:nonzero;fill:rgb(39.607843%,3.921569%,58.823529%);fill-opacity:1;" d="M 16.058594 38.734375 C 16.058594 38.164062 16.058594 37.671875 16.058594 37.03125 C 17.082031 37.082031 18.082031 37.003906 19.011719 37.222656 C 19.484375 37.335938 19.988281 37.921875 20.1875 38.414062 C 20.457031 39.074219 20.28125 39.808594 19.675781 40.328125 C 19.507812 40.472656 19.308594 40.589844 19.058594 40.765625 C 19.722656 41.570312 20.371094 42.359375 21.066406 43.207031 C 20.007812 43.394531 19.164062 43.363281 18.628906 42.332031 C 18.367188 41.839844 17.945312 41.429688 17.472656 40.820312 C 17.472656 41.734375 17.472656 42.46875 17.472656 43.238281 C 16.976562 43.238281 16.574219 43.238281 16.058594 43.238281 C 16.058594 41.761719 16.058594 40.289062 16.058594 38.734375 M 17.441406 38.527344 C 17.441406 38.9375 17.441406 39.351562 17.441406 40.023438 C 17.972656 39.769531 18.429688 39.65625 18.703125 39.371094 C 18.84375 39.226562 18.757812 38.570312 18.605469 38.492188 C 18.277344 38.335938 17.84375 38.40625 17.441406 38.527344 Z M 17.441406 38.527344 "/>
<path style=" stroke:none;fill-rule:nonzero;fill:rgb(38.039216%,3.529412%,59.607843%);fill-opacity:1;" d="M 26.929688 40.609375 C 26.929688 39.414062 26.929688 38.296875 26.929688 37.007812 C 27.898438 37.085938 28.84375 37.039062 29.71875 37.261719 C 31.160156 37.632812 31.980469 39.078125 31.789062 40.601562 C 31.609375 42.035156 30.433594 43.160156 28.960938 43.265625 C 28.320312 43.308594 27.671875 43.269531 26.929688 43.269531 C 26.929688 42.386719 26.929688 41.535156 26.929688 40.609375 M 28.3125 40.679688 C 28.3125 41.117188 28.3125 41.546875 28.3125 41.976562 C 29.566406 42.019531 30.328125 41.292969 30.316406 40.15625 C 30.308594 39.027344 29.566406 38.335938 28.3125 38.363281 C 28.3125 39.085938 28.3125 39.804688 28.3125 40.679688 Z M 28.3125 40.679688 "/>
<path style=" stroke:none;fill-rule:nonzero;fill:rgb(38.431373%,3.137255%,59.215686%);fill-opacity:1;" d="M 36.507812 38.074219 C 37.457031 39.230469 37.554688 40.457031 36.917969 41.703125 C 36.226562 43.042969 34.957031 43.449219 32.457031 43.226562 C 32.457031 41.207031 32.457031 39.1875 32.457031 37.101562 C 33.882812 37.054688 35.328125 36.839844 36.507812 38.074219 M 33.800781 38.722656 C 33.800781 39.8125 33.800781 40.902344 33.800781 41.984375 C 35 42.015625 35.730469 41.378906 35.808594 40.308594 C 35.882812 39.285156 35.210938 38.421875 34.234375 38.335938 C 34.097656 38.324219 33.945312 38.5 33.800781 38.722656 Z M 33.800781 38.722656 "/>
<path style=" stroke:none;fill-rule:nonzero;fill:rgb(38.823529%,2.352941%,58.823529%);fill-opacity:1;" d="M 42.550781 37.046875 C 42.605469 37.210938 42.71875 37.367188 42.71875 37.527344 C 42.730469 39.40625 42.730469 41.285156 42.730469 43.21875 C 42.273438 43.21875 41.847656 43.21875 41.316406 43.21875 C 41.316406 42.683594 41.277344 42.113281 41.324219 41.558594 C 41.382812 40.914062 41.125 40.707031 40.519531 40.765625 C 40.160156 40.804688 39.792969 40.773438 39.34375 40.773438 C 39.34375 41.59375 39.34375 42.386719 39.34375 43.226562 C 38.839844 43.226562 38.414062 43.226562 37.957031 43.226562 C 37.957031 41.191406 37.957031 39.191406 37.957031 37.125 C 38.386719 37.125 38.8125 37.125 39.289062 37.125 C 39.289062 37.902344 39.289062 38.652344 39.289062 39.527344 C 39.894531 39.527344 40.453125 39.527344 41.148438 39.496094 C 41.285156 38.699219 41.285156 37.933594 41.285156 37.171875 C 41.792969 37.125 42.171875 37.085938 42.550781 37.046875 Z M 42.550781 37.046875 "/>
<path style=" stroke:none;fill-rule:nonzero;fill:rgb(38.823529%,3.137255%,59.607843%);fill-opacity:1;" d="M 24.574219 43.28125 C 22.332031 43.683594 21.324219 42.828125 21.320312 40.597656 C 21.316406 39.449219 21.320312 38.304688 21.320312 37.113281 C 21.808594 37.113281 22.234375 37.113281 22.742188 37.113281 C 22.742188 38.335938 22.738281 39.53125 22.746094 40.726562 C 22.75 41.652344 23.027344 42.007812 23.726562 42.011719 C 24.425781 42.015625 24.730469 41.65625 24.75 40.738281 C 24.777344 39.566406 24.777344 38.394531 24.789062 37.222656 C 24.789062 37.199219 24.8125 37.175781 24.851562 37.113281 C 25.230469 37.113281 25.632812 37.113281 26.042969 37.113281 C 26.042969 38.699219 26.097656 40.277344 26.019531 41.851562 C 25.980469 42.621094 25.367188 43.0625 24.574219 43.28125 Z M 24.574219 43.28125 "/>
<path style=" stroke:none;fill-rule:nonzero;fill:rgb(38.431373%,2.745098%,58.823529%);fill-opacity:1;" d="M 5.296875 42.035156 C 4.53125 42.027344 3.832031 42.027344 3.148438 42.027344 C 2.472656 43.332031 2.472656 43.332031 1.152344 43.230469 C 1.777344 41.671875 2.390625 40.140625 3.003906 38.609375 C 3.109375 38.34375 3.246094 38.082031 3.324219 37.808594 C 3.464844 37.316406 3.675781 37.039062 4.285156 37.035156 C 4.878906 37.035156 5.023438 37.347656 5.191406 37.777344 C 5.910156 39.585938 6.636719 41.390625 7.382812 43.246094 C 6.84375 43.246094 6.382812 43.246094 5.945312 43.246094 C 5.746094 42.832031 5.558594 42.4375 5.296875 42.035156 M 4.601562 39.789062 C 4.503906 39.554688 4.398438 39.324219 4.246094 38.96875 C 3.992188 39.632812 3.789062 40.171875 3.570312 40.75 C 4.078125 40.75 4.480469 40.75 4.957031 40.75 C 4.839844 40.429688 4.738281 40.167969 4.601562 39.789062 Z M 4.601562 39.789062 "/>
<path style=" stroke:none;fill-rule:nonzero;fill:rgb(38.431373%,2.745098%,58.823529%);fill-opacity:1;" d="M 44.351562 39.722656 C 44.652344 38.96875 44.898438 38.246094 45.230469 37.574219 C 45.347656 37.347656 45.699219 37.113281 45.953125 37.097656 C 46.242188 37.085938 46.71875 37.242188 46.8125 37.457031 C 47.628906 39.335938 48.375 41.246094 49.175781 43.21875 C 48.65625 43.21875 48.214844 43.21875 47.710938 43.21875 C 47.5625 42.855469 47.394531 42.449219 47.21875 42.023438 C 46.914062 42.023438 46.625 42.050781 46.34375 42.015625 C 45.363281 41.902344 44.511719 41.972656 44.453125 43.257812 C 43.941406 43.257812 43.503906 43.257812 42.945312 43.257812 C 43.417969 42.0625 43.871094 40.921875 44.351562 39.722656 M 45.550781 40.246094 C 45.507812 40.40625 45.464844 40.566406 45.414062 40.75 C 45.882812 40.75 46.285156 40.75 46.761719 40.75 C 46.527344 40.160156 46.320312 39.632812 46.054688 38.960938 C 45.855469 39.457031 45.726562 39.792969 45.550781 40.246094 Z M 45.550781 40.246094 "/>
<path style=" stroke:none;fill-rule:nonzero;fill:rgb(84.705882%,3.137255%,98.431373%);fill-opacity:1;" d="M 20.09375 2.359375 C 20.0625 2.359375 20.027344 2.355469 19.945312 2.347656 C 20.40625 2.085938 20.894531 1.714844 21.429688 1.605469 C 23.085938 1.285156 24.75 1.394531 26.378906 1.824219 C 28.207031 2.308594 29.535156 3.488281 30.523438 5.0625 C 32.433594 8.101562 33.855469 11.371094 35.179688 14.691406 C 35.5 15.492188 35.804688 16.292969 36.148438 17.199219 C 36.175781 17.4375 36.175781 17.578125 36.125 17.683594 C 35.792969 17.015625 35.503906 16.371094 35.21875 15.730469 C 33.660156 12.21875 32.253906 8.617188 29.75 5.621094 C 28.359375 3.960938 26.769531 2.582031 24.539062 2.027344 C 23.933594 1.976562 23.382812 1.917969 22.835938 1.9375 C 22.550781 1.949219 22.535156 2.074219 22.71875 2.394531 C 22.789062 2.457031 22.839844 2.488281 22.886719 2.515625 C 22.886719 2.511719 22.875 2.515625 22.898438 2.5625 C 23.246094 3.007812 23.609375 3.382812 23.890625 3.804688 C 24.007812 3.988281 23.960938 4.28125 23.96875 4.496094 C 23.945312 4.46875 23.882812 4.429688 23.867188 4.390625 C 23.101562 3.421875 22.160156 2.796875 20.980469 2.417969 C 20.652344 2.378906 20.375 2.367188 20.09375 2.359375 Z M 20.09375 2.359375 "/>
<path style=" stroke:none;fill-rule:nonzero;fill:rgb(84.705882%,1.568627%,98.431373%);fill-opacity:1;" d="M 8.199219 32.125 C 7.875 32.238281 7.550781 32.347656 7.167969 32.457031 C 8.25 30.789062 9.390625 29.125 10.527344 27.457031 C 10.625 27.3125 10.660156 27.125 10.769531 26.871094 C 10.996094 26.429688 11.175781 26.078125 11.394531 25.6875 C 11.613281 25.210938 11.792969 24.769531 12.015625 24.292969 C 12.234375 23.804688 12.417969 23.351562 12.59375 22.898438 C 12.710938 22.585938 12.828125 22.273438 12.984375 21.863281 C 13.097656 21.628906 13.175781 21.496094 13.226562 21.351562 C 13.6875 20.082031 14.152344 18.804688 14.675781 17.539062 C 15.0625 17.601562 15.386719 17.660156 15.707031 17.777344 C 15.023438 19.574219 14.394531 21.332031 13.648438 23.042969 C 12.496094 25.679688 11.265625 28.292969 9.429688 30.550781 C 9.007812 31.066406 8.609375 31.597656 8.199219 32.125 Z M 8.199219 32.125 "/>
<path style=" stroke:none;fill-rule:nonzero;fill:rgb(85.098039%,1.960784%,98.823529%);fill-opacity:1;" d="M 28.554688 26.121094 C 25.640625 27.46875 22.59375 28.296875 19.347656 28.582031 C 19.398438 28.109375 19.503906 27.691406 19.613281 27.285156 C 19.617188 27.289062 19.628906 27.289062 19.6875 27.28125 C 22.597656 26.753906 25.378906 26.019531 28.046875 24.835938 C 28.234375 25.296875 28.394531 25.710938 28.554688 26.121094 Z M 28.554688 26.121094 "/>
<path style=" stroke:none;fill-rule:nonzero;fill:rgb(42.352941%,6.27451%,58.431373%);fill-opacity:1;" d="M 13.742188 40.453125 C 13.742188 39.3125 13.742188 38.246094 13.742188 37.125 C 14.210938 37.125 14.628906 37.125 15.085938 37.125 C 15.085938 39.167969 15.085938 41.183594 15.085938 43.238281 C 14.652344 43.238281 14.246094 43.238281 13.742188 43.238281 C 13.742188 42.335938 13.742188 41.433594 13.742188 40.453125 Z M 13.742188 40.453125 "/>
<path style=" stroke:none;fill-rule:nonzero;fill:rgb(72.54902%,2.352941%,88.627451%);fill-opacity:1;" d="M 42.71875 10.636719 C 43.050781 10.132812 43.382812 9.625 43.765625 9.105469 C 43.816406 9.097656 43.8125 9.089844 43.8125 9.089844 C 43.53125 9.90625 43.257812 10.71875 42.898438 11.59375 C 42.785156 11.742188 42.757812 11.835938 42.730469 11.929688 C 42.730469 11.929688 42.726562 11.917969 42.679688 11.941406 C 42.566406 12.164062 42.5 12.367188 42.433594 12.566406 C 42.433594 12.566406 42.429688 12.554688 42.382812 12.570312 C 40.886719 14.792969 39.234375 16.832031 37.332031 18.667969 C 37.242188 18.589844 37.175781 18.539062 37.09375 18.445312 C 37.035156 18.277344 37.003906 18.15625 37.015625 18.027344 C 38.402344 16.558594 39.742188 15.09375 41.070312 13.617188 C 41.15625 13.519531 41.136719 13.324219 41.183594 13.140625 C 41.226562 13.0625 41.265625 13.03125 41.371094 13.007812 C 41.496094 12.847656 41.566406 12.699219 41.65625 12.503906 C 42.027344 11.847656 42.371094 11.242188 42.71875 10.636719 Z M 42.71875 10.636719 "/>
<path style=" stroke:none;fill-rule:nonzero;fill:rgb(42.745098%,3.137255%,62.352941%);fill-opacity:1;" d="M 41.316406 13.015625 C 41.265625 13.03125 41.226562 13.0625 41.136719 13.160156 C 39.710938 14.632812 38.347656 16.042969 37.007812 17.476562 C 36.910156 17.582031 36.976562 17.847656 36.964844 18.03125 C 37.003906 18.15625 37.035156 18.277344 37.0625 18.488281 C 36.929688 18.597656 36.800781 18.625 36.660156 18.597656 C 36.484375 18.269531 36.324219 17.992188 36.167969 17.71875 C 36.175781 17.578125 36.175781 17.4375 36.1875 17.25 C 38.402344 15.53125 40.335938 13.582031 42.015625 11.382812 C 42.207031 11.136719 42.417969 10.910156 42.667969 10.652344 C 42.371094 11.242188 42.027344 11.847656 41.613281 12.523438 C 41.46875 12.730469 41.390625 12.875 41.316406 13.015625 Z M 41.316406 13.015625 "/>
<path style=" stroke:none;fill-rule:nonzero;fill:rgb(85.098039%,6.27451%,98.431373%);fill-opacity:1;" d="M 37.363281 18.695312 C 39.234375 16.832031 40.886719 14.792969 42.390625 12.574219 C 41.519531 14.117188 40.640625 15.703125 39.652344 17.214844 C 39.105469 18.058594 38.367188 18.777344 37.65625 19.523438 C 37.519531 19.226562 37.441406 18.960938 37.363281 18.695312 Z M 37.363281 18.695312 "/>
<path style=" stroke:none;fill-rule:nonzero;fill:rgb(47.45098%,1.568627%,67.058824%);fill-opacity:1;" d="M 28.609375 26.105469 C 28.394531 25.710938 28.234375 25.296875 28.058594 24.792969 C 28.042969 24.671875 28.050781 24.644531 28.113281 24.613281 C 28.652344 24.457031 29.128906 24.300781 29.605469 24.144531 C 29.90625 24.429688 30.207031 24.714844 30.527344 25.050781 C 29.921875 25.425781 29.292969 25.753906 28.609375 26.105469 Z M 28.609375 26.105469 "/>
<path style=" stroke:none;fill-rule:nonzero;fill:rgb(57.254902%,2.352941%,74.901961%);fill-opacity:1;" d="M 19.609375 27.28125 C 19.503906 27.691406 19.398438 28.109375 19.28125 28.578125 C 18.703125 28.695312 18.128906 28.753906 17.484375 28.800781 C 17.601562 28.363281 17.777344 27.933594 18.070312 27.46875 C 18.65625 27.386719 19.128906 27.332031 19.609375 27.28125 Z M 19.609375 27.28125 "/>
<path style=" stroke:none;fill-rule:nonzero;fill:rgb(52.156863%,0.784314%,71.372549%);fill-opacity:1;" d="M 37.894531 22.34375 C 37.382812 21.871094 36.871094 21.335938 36.371094 20.71875 C 36.210938 20.03125 36.03125 19.421875 35.902344 18.832031 C 36.332031 19.261719 36.722656 19.664062 37.105469 20.070312 C 37.101562 20.070312 37.101562 20.066406 37.101562 20.113281 C 37.152344 20.238281 37.203125 20.316406 37.253906 20.390625 C 37.464844 21.019531 37.679688 21.652344 37.894531 22.34375 Z M 37.894531 22.34375 "/>
<path style=" stroke:none;fill-rule:nonzero;fill:rgb(57.254902%,2.352941%,74.901961%);fill-opacity:1;" d="M 11.355469 25.726562 C 11.175781 26.078125 10.996094 26.429688 10.769531 26.8125 C 10.371094 26.605469 10.015625 26.363281 9.632812 26.078125 C 9.859375 25.695312 10.113281 25.363281 10.378906 24.980469 C 10.398438 24.929688 10.476562 24.925781 10.523438 24.980469 C 10.828125 25.261719 11.089844 25.492188 11.355469 25.726562 Z M 11.355469 25.726562 "/>
<path style=" stroke:none;fill-rule:nonzero;fill:rgb(47.45098%,1.568627%,67.058824%);fill-opacity:1;" d="M 37.332031 18.667969 C 37.441406 18.960938 37.519531 19.226562 37.613281 19.550781 C 37.523438 19.734375 37.410156 19.859375 37.234375 20.023438 C 37.167969 20.058594 37.101562 20.066406 37.101562 20.066406 C 37.101562 20.066406 37.101562 20.070312 37.101562 20.011719 C 36.960938 19.515625 36.820312 19.085938 36.675781 18.652344 C 36.800781 18.625 36.929688 18.597656 37.082031 18.53125 C 37.175781 18.539062 37.242188 18.589844 37.332031 18.667969 Z M 37.332031 18.667969 "/>
<path style=" stroke:none;fill-rule:nonzero;fill:rgb(86.666667%,78.431373%,79.215686%);fill-opacity:1;" d="M 42.492188 37.027344 C 42.171875 37.085938 41.792969 37.125 41.285156 37.171875 C 41.285156 37.933594 41.285156 38.699219 41.21875 39.488281 C 41.160156 38.96875 41.214844 38.421875 41.160156 37.886719 C 41.097656 37.183594 41.324219 36.859375 42.054688 36.980469 C 42.175781 37.003906 42.308594 36.996094 42.492188 37.027344 Z M 42.492188 37.027344 "/>
<path style=" stroke:none;fill-rule:nonzero;fill:rgb(85.098039%,6.27451%,98.431373%);fill-opacity:1;" d="M 42.480469 12.542969 C 42.5 12.367188 42.566406 12.164062 42.683594 11.941406 C 42.667969 12.121094 42.597656 12.320312 42.480469 12.542969 Z M 42.480469 12.542969 "/>
<path style=" stroke:none;fill-rule:nonzero;fill:rgb(37.647059%,1.176471%,58.823529%);fill-opacity:1;" d="M 7.644531 32.804688 C 7.816406 32.773438 8.027344 32.773438 8.304688 32.808594 C 8.371094 32.847656 8.375 32.917969 8.375 32.917969 C 8.375 32.917969 8.359375 32.9375 8.351562 32.945312 C 8.125 32.914062 7.90625 32.875 7.644531 32.804688 Z M 7.644531 32.804688 "/>
<path style=" stroke:none;fill-rule:nonzero;fill:rgb(85.098039%,6.27451%,98.431373%);fill-opacity:1;" d="M 42.769531 11.902344 C 42.757812 11.835938 42.785156 11.742188 42.855469 11.628906 C 42.871094 11.695312 42.84375 11.789062 42.769531 11.902344 Z M 42.769531 11.902344 "/>
<path style=" stroke:none;fill-rule:nonzero;fill:rgb(85.098039%,1.176471%,98.823529%);fill-opacity:1;" d="M 43.003906 31.621094 C 42.953125 31.589844 42.917969 31.511719 42.882812 31.390625 C 42.925781 31.421875 42.96875 31.5 43.003906 31.621094 Z M 43.003906 31.621094 "/>
<path style=" stroke:none;fill-rule:nonzero;fill:rgb(72.941176%,0%,89.019608%);fill-opacity:1;" d="M 37.101562 20.113281 C 37.101562 20.066406 37.167969 20.058594 37.203125 20.058594 C 37.242188 20.132812 37.25 20.207031 37.253906 20.335938 C 37.203125 20.316406 37.152344 20.238281 37.101562 20.113281 Z M 37.101562 20.113281 "/>
<path style=" stroke:none;fill-rule:nonzero;fill:rgb(72.54902%,2.352941%,88.627451%);fill-opacity:1;" d="M 43.816406 9.097656 C 43.820312 9.101562 43.839844 9.050781 43.839844 9.050781 C 43.839844 9.050781 43.835938 9.078125 43.824219 9.085938 C 43.8125 9.089844 43.816406 9.097656 43.816406 9.097656 Z M 43.816406 9.097656 "/>
<path style=" stroke:none;fill-rule:nonzero;fill:rgb(98.039216%,92.156863%,99.215686%);fill-opacity:1;" d="M 26.121094 21.21875 C 26.46875 21.488281 26.773438 21.722656 27.191406 22.046875 C 24.628906 22.957031 22.113281 23.476562 19.4375 23.726562 C 20.121094 21.878906 20.765625 20.132812 21.492188 18.167969 C 23.070312 19.210938 24.574219 20.199219 26.121094 21.21875 Z M 26.121094 21.21875 "/>
<path style=" stroke:none;fill-rule:nonzero;fill:rgb(49.019608%,0%,68.235294%);fill-opacity:1;" d="M 8.445312 32.921875 C 8.375 32.917969 8.371094 32.847656 8.371094 32.808594 C 9.988281 32.4375 11.417969 31.761719 12.660156 30.613281 C 14.144531 29.246094 15.425781 27.71875 16.285156 25.914062 C 17.273438 23.839844 18.066406 21.671875 19.007812 19.511719 C 19.148438 19.515625 19.222656 19.554688 19.300781 19.59375 C 19.363281 19.832031 19.539062 20.113281 19.472656 20.304688 C 18.699219 22.480469 17.957031 24.671875 17.078125 26.804688 C 15.84375 29.804688 13.707031 31.882812 10.507812 32.691406 C 9.863281 32.855469 9.175781 32.851562 8.445312 32.921875 Z M 8.445312 32.921875 "/>
<path style=" stroke:none;fill-rule:nonzero;fill:rgb(97.647059%,90.588235%,99.215686%);fill-opacity:1;" d="M 14.613281 17.53125 C 14.152344 18.804688 13.6875 20.082031 13.226562 21.351562 C 13.175781 21.496094 13.097656 21.628906 12.992188 21.808594 C 11.171875 19.828125 11.996094 17.355469 14.695312 16.832031 C 14.703125 17.105469 14.65625 17.320312 14.613281 17.53125 Z M 14.613281 17.53125 "/>
<path style=" stroke:none;fill-rule:nonzero;fill:rgb(49.019608%,0%,68.235294%);fill-opacity:1;" d="M 19.921875 24.613281 C 20.921875 24.414062 21.929688 24.242188 22.917969 24.003906 C 24.144531 23.707031 25.371094 23.390625 26.578125 23.019531 C 27.007812 22.886719 27.253906 22.976562 27.527344 23.375 C 27.574219 23.46875 27.574219 23.496094 27.511719 23.519531 C 27.25 23.558594 27.046875 23.597656 26.847656 23.640625 C 24.539062 24.175781 22.230469 24.710938 19.917969 25.242188 C 19.917969 25.238281 19.910156 25.238281 19.914062 25.171875 C 19.917969 24.945312 19.917969 24.78125 19.921875 24.613281 Z M 19.921875 24.613281 "/>
<path style=" stroke:none;fill-rule:nonzero;fill:rgb(45.098039%,0.392157%,65.098039%);fill-opacity:1;" d="M 14.675781 17.539062 C 14.65625 17.320312 14.703125 17.105469 14.753906 16.839844 C 15.300781 16.761719 15.847656 16.6875 16.382812 16.730469 C 16.957031 16.777344 17.523438 16.933594 18.148438 17.128906 C 18.101562 17.648438 17.996094 18.078125 17.890625 18.511719 C 17.867188 18.511719 17.835938 18.511719 17.722656 18.484375 C 16.992188 18.210938 16.351562 17.964844 15.707031 17.71875 C 15.386719 17.660156 15.0625 17.601562 14.675781 17.539062 Z M 14.675781 17.539062 "/>
<path style=" stroke:none;fill-rule:nonzero;fill:rgb(41.568627%,0%,61.960784%);fill-opacity:1;" d="M 17.914062 18.554688 C 17.996094 18.078125 18.101562 17.648438 18.207031 17.152344 C 18.257812 17.09375 18.3125 17.085938 18.363281 17.097656 C 19.699219 17.386719 19.855469 17.648438 19.445312 18.949219 C 19.390625 19.117188 19.351562 19.296875 19.300781 19.535156 C 19.222656 19.554688 19.148438 19.515625 19.03125 19.457031 C 18.644531 19.160156 18.292969 18.882812 17.914062 18.554688 Z M 17.914062 18.554688 "/>
<path style=" stroke:none;fill-rule:nonzero;fill:rgb(52.156863%,0.784314%,71.372549%);fill-opacity:1;" d="M 19.613281 27.285156 C 19.128906 27.332031 18.65625 27.386719 18.109375 27.4375 C 18.226562 26.988281 18.402344 26.539062 18.695312 26.058594 C 19.125 26.027344 19.445312 26.027344 19.769531 26.089844 C 19.722656 26.535156 19.675781 26.914062 19.628906 27.289062 C 19.628906 27.289062 19.617188 27.289062 19.613281 27.285156 Z M 19.613281 27.285156 "/>
<path style=" stroke:none;fill-rule:nonzero;fill:rgb(42.745098%,0%,63.137255%);fill-opacity:1;" d="M 27.574219 23.523438 C 27.574219 23.496094 27.574219 23.46875 27.574219 23.402344 C 28.570312 22.621094 28.941406 23.695312 29.582031 24.097656 C 29.128906 24.300781 28.652344 24.457031 28.089844 24.566406 C 27.914062 24.347656 27.824219 24.167969 27.726562 23.941406 C 27.671875 23.765625 27.621094 23.644531 27.574219 23.523438 Z M 27.574219 23.523438 "/>
<path style=" stroke:none;fill-rule:nonzero;fill:rgb(47.45098%,1.568627%,67.058824%);fill-opacity:1;" d="M 12.542969 22.894531 C 12.417969 23.351562 12.234375 23.804688 11.992188 24.242188 C 11.734375 24.097656 11.539062 23.96875 11.339844 23.832031 C 11.34375 23.765625 11.34375 23.695312 11.351562 23.570312 C 11.535156 23.273438 11.714844 23.03125 11.9375 22.761719 C 12.148438 22.785156 12.320312 22.835938 12.542969 22.894531 Z M 12.542969 22.894531 "/>
<path style=" stroke:none;fill-rule:nonzero;fill:rgb(45.098039%,0.392157%,65.098039%);fill-opacity:1;" d="M 19.765625 26.027344 C 19.445312 26.027344 19.125 26.027344 18.738281 26.023438 C 18.707031 25.796875 18.746094 25.574219 18.878906 25.296875 C 19.28125 25.242188 19.59375 25.238281 19.910156 25.238281 C 19.910156 25.238281 19.917969 25.238281 19.910156 25.296875 C 19.867188 25.582031 19.820312 25.808594 19.773438 26.03125 C 19.769531 26.03125 19.765625 26.027344 19.765625 26.027344 Z M 19.765625 26.027344 "/>
<path style=" stroke:none;fill-rule:nonzero;fill:rgb(41.568627%,0%,61.960784%);fill-opacity:1;" d="M 19.914062 25.171875 C 19.59375 25.238281 19.28125 25.242188 18.902344 25.246094 C 18.933594 24.703125 19.28125 24.53125 19.859375 24.613281 C 19.917969 24.78125 19.917969 24.945312 19.914062 25.171875 Z M 19.914062 25.171875 "/>
<path style=" stroke:none;fill-rule:nonzero;fill:rgb(98.039216%,91.764706%,99.215686%);fill-opacity:1;" d="M 28.519531 14.273438 C 27.722656 13.851562 26.929688 13.425781 26.128906 13.019531 C 25.367188 12.632812 24.59375 12.261719 23.8125 11.785156 C 24.351562 10.074219 24.902344 8.464844 25.5 6.839844 C 25.761719 7.164062 25.980469 7.503906 26.195312 7.898438 C 26.96875 10.0625 27.746094 12.164062 28.519531 14.273438 Z M 28.519531 14.273438 "/>
<path style=" stroke:none;fill-rule:nonzero;fill:rgb(38.039216%,0.784314%,58.823529%);fill-opacity:1;" d="M 28.515625 14.269531 C 27.746094 12.164062 26.96875 10.0625 26.246094 7.90625 C 26.996094 8.609375 27.789062 9.296875 28.382812 10.128906 C 29.828125 12.152344 31.183594 14.242188 32.582031 16.363281 C 32.734375 16.820312 32.878906 17.222656 33.027344 17.628906 C 31.589844 16.578125 30.152344 15.53125 28.671875 14.40625 C 28.609375 14.269531 28.570312 14.242188 28.511719 14.257812 C 28.511719 14.257812 28.511719 14.269531 28.515625 14.269531 Z M 28.515625 14.269531 "/>
<path style=" stroke:none;fill-rule:nonzero;fill:rgb(72.941176%,0%,89.019608%);fill-opacity:1;" d="M 20.371094 10.679688 C 19.742188 10.5625 19.117188 10.445312 18.433594 10.316406 C 18.910156 8.683594 19.371094 7.105469 19.832031 5.527344 C 20.101562 4.613281 20.375 3.699219 20.722656 2.734375 C 20.867188 2.683594 20.933594 2.683594 21.050781 2.710938 C 21.449219 3.128906 21.800781 3.519531 22.101562 3.949219 C 21.960938 4.273438 21.851562 4.566406 21.78125 4.867188 C 21.304688 6.800781 20.839844 8.738281 20.371094 10.679688 Z M 20.371094 10.679688 "/>
<path style=" stroke:none;fill-rule:nonzero;fill:rgb(37.647059%,1.176471%,58.823529%);fill-opacity:1;" d="M 25.453125 6.851562 C 24.902344 8.464844 24.351562 10.074219 23.773438 11.746094 C 23.390625 11.699219 23.039062 11.589844 22.632812 11.394531 C 22.640625 11.03125 22.683594 10.753906 22.765625 10.484375 C 23.226562 8.902344 24.117188 7.378906 23.382812 5.59375 C 23.566406 5.171875 23.726562 4.800781 23.882812 4.429688 C 23.882812 4.429688 23.945312 4.46875 23.992188 4.542969 C 24.710938 5.238281 25.402344 5.84375 25.453125 6.851562 Z M 25.453125 6.851562 "/>
<path style=" stroke:none;fill-rule:nonzero;fill:rgb(61.176471%,0%,78.823529%);fill-opacity:1;" d="M 20.414062 10.714844 C 20.839844 8.738281 21.304688 6.800781 21.78125 4.867188 C 21.851562 4.566406 21.960938 4.273438 22.152344 3.953125 C 22.570312 4.5 22.886719 5.074219 23.160156 5.679688 C 22.976562 6.191406 22.820312 6.65625 22.691406 7.132812 C 22.339844 8.460938 21.996094 9.789062 21.652344 11.117188 C 21.253906 10.992188 20.855469 10.875 20.414062 10.714844 Z M 20.414062 10.714844 "/>
<path style=" stroke:none;fill-rule:nonzero;fill:rgb(49.019608%,0%,68.235294%);fill-opacity:1;" d="M 21.703125 11.128906 C 21.996094 9.789062 22.339844 8.460938 22.691406 7.132812 C 22.820312 6.65625 22.976562 6.191406 23.199219 5.679688 C 23.28125 5.644531 23.359375 5.648438 23.359375 5.648438 C 24.117188 7.378906 23.226562 8.902344 22.765625 10.484375 C 22.683594 10.753906 22.640625 11.03125 22.582031 11.371094 C 22.308594 11.335938 22.035156 11.238281 21.703125 11.128906 Z M 21.703125 11.128906 "/>
<path style=" stroke:none;fill-rule:nonzero;fill:rgb(42.745098%,0%,63.137255%);fill-opacity:1;" d="M 33.054688 17.667969 C 32.878906 17.222656 32.734375 16.820312 32.636719 16.367188 C 33.0625 16.472656 33.441406 16.625 33.84375 16.824219 C 34.058594 17.097656 34.253906 17.328125 34.449219 17.613281 C 34.554688 17.953125 34.679688 18.226562 34.757812 18.511719 C 34.828125 18.769531 34.851562 19.039062 34.894531 19.300781 C 34.292969 18.773438 33.6875 18.238281 33.054688 17.667969 Z M 33.054688 17.667969 "/>
<path style=" stroke:none;fill-rule:nonzero;fill:rgb(47.45098%,1.568627%,67.058824%);fill-opacity:1;" d="M 34.917969 19.347656 C 34.851562 19.039062 34.828125 18.769531 34.757812 18.511719 C 34.679688 18.226562 34.554688 17.953125 34.503906 17.621094 C 34.78125 17.71875 35.011719 17.867188 35.265625 18.0625 C 35.480469 18.339844 35.667969 18.578125 35.855469 18.8125 C 36.03125 19.421875 36.210938 20.03125 36.347656 20.671875 C 35.855469 20.269531 35.402344 19.828125 34.917969 19.347656 Z M 34.917969 19.347656 "/>
<path style=" stroke:none;fill-rule:nonzero;fill:rgb(49.411765%,0.392157%,68.627451%);fill-opacity:1;" d="M 21.003906 2.691406 C 20.933594 2.683594 20.867188 2.683594 20.746094 2.683594 C 20.511719 2.605469 20.324219 2.527344 20.117188 2.40625 C 20.375 2.367188 20.652344 2.378906 20.976562 2.476562 C 21.011719 2.609375 21.011719 2.652344 21.003906 2.691406 Z M 21.003906 2.691406 "/>
<path style=" stroke:none;fill-rule:nonzero;fill:rgb(98.039216%,91.764706%,99.215686%);fill-opacity:1;" d="M 28.511719 14.292969 C 28.570312 14.242188 28.609375 14.269531 28.636719 14.363281 C 28.589844 14.398438 28.542969 14.375 28.511719 14.292969 Z M 28.511719 14.292969 "/>
<path style=" stroke:none;fill-rule:nonzero;fill:rgb(52.156863%,0.784314%,71.372549%);fill-opacity:1;" d="M 11.296875 23.863281 C 11.539062 23.96875 11.734375 24.097656 11.953125 24.28125 C 11.792969 24.769531 11.613281 25.210938 11.394531 25.6875 C 11.089844 25.492188 10.828125 25.261719 10.558594 24.976562 C 10.785156 24.582031 11.019531 24.234375 11.296875 23.863281 Z M 11.296875 23.863281 "/>
<path style=" stroke:none;fill-rule:nonzero;fill:rgb(72.941176%,0%,89.019608%);fill-opacity:1;" d="M 15.707031 17.777344 C 16.351562 17.964844 16.992188 18.210938 17.683594 18.484375 C 17.316406 19.652344 16.945312 20.808594 16.46875 21.921875 C 15.140625 25.011719 13.550781 27.953125 11.058594 30.269531 C 10.257812 31.011719 9.234375 31.511719 8.257812 32.125 C 8.609375 31.597656 9.007812 31.066406 9.429688 30.550781 C 11.265625 28.292969 12.496094 25.679688 13.648438 23.042969 C 14.394531 21.332031 15.023438 19.574219 15.707031 17.777344 Z M 15.707031 17.777344 "/>
<path style=" stroke:none;fill-rule:nonzero;fill:rgb(93.72549%,89.019608%,94.901961%);fill-opacity:1;" d="M 17.445312 38.453125 C 17.84375 38.40625 18.277344 38.335938 18.605469 38.492188 C 18.757812 38.570312 18.84375 39.226562 18.703125 39.371094 C 18.429688 39.65625 17.972656 39.769531 17.441406 40.023438 C 17.441406 39.351562 17.441406 38.9375 17.445312 38.453125 Z M 17.445312 38.453125 "/>
<path style=" stroke:none;fill-rule:nonzero;fill:rgb(98.431373%,92.156863%,97.254902%);fill-opacity:1;" d="M 28.3125 40.601562 C 28.3125 39.804688 28.3125 39.085938 28.3125 38.363281 C 29.566406 38.335938 30.308594 39.027344 30.316406 40.15625 C 30.328125 41.292969 29.566406 42.019531 28.3125 41.976562 C 28.3125 41.546875 28.3125 41.117188 28.3125 40.601562 Z M 28.3125 40.601562 "/>
<path style=" stroke:none;fill-rule:nonzero;fill:rgb(97.647059%,91.764706%,97.254902%);fill-opacity:1;" d="M 33.800781 38.65625 C 33.945312 38.5 34.097656 38.324219 34.234375 38.335938 C 35.210938 38.421875 35.882812 39.285156 35.808594 40.308594 C 35.730469 41.378906 35 42.015625 33.800781 41.984375 C 33.800781 40.902344 33.800781 39.8125 33.800781 38.65625 Z M 33.800781 38.65625 "/>
<path style=" stroke:none;fill-rule:nonzero;fill:rgb(93.72549%,89.019608%,94.901961%);fill-opacity:1;" d="M 4.621094 39.847656 C 4.738281 40.167969 4.839844 40.429688 4.957031 40.75 C 4.480469 40.75 4.078125 40.75 3.570312 40.75 C 3.789062 40.171875 3.992188 39.632812 4.246094 38.96875 C 4.398438 39.324219 4.503906 39.554688 4.621094 39.847656 Z M 4.621094 39.847656 "/>
<path style=" stroke:none;fill-rule:nonzero;fill:rgb(93.72549%,89.019608%,94.901961%);fill-opacity:1;" d="M 45.570312 40.183594 C 45.726562 39.792969 45.855469 39.457031 46.054688 38.960938 C 46.320312 39.632812 46.527344 40.160156 46.761719 40.75 C 46.285156 40.75 45.882812 40.75 45.414062 40.75 C 45.464844 40.566406 45.507812 40.40625 45.570312 40.183594 Z M 45.570312 40.183594 "/>
<path style=" stroke:none;fill-rule:nonzero;fill:rgb(49.411765%,0.392157%,68.627451%);fill-opacity:1;" d="M 33.816406 16.78125 C 33.441406 16.625 33.0625 16.472656 32.632812 16.3125 C 31.183594 14.242188 29.828125 12.152344 28.382812 10.128906 C 27.789062 9.296875 26.996094 8.609375 26.246094 7.847656 C 25.980469 7.503906 25.761719 7.164062 25.5 6.839844 C 25.402344 5.84375 24.710938 5.238281 24.011719 4.570312 C 23.960938 4.28125 24.007812 3.988281 23.890625 3.804688 C 23.609375 3.382812 23.246094 3.007812 22.960938 2.5625 C 23.304688 2.632812 23.671875 2.679688 23.902344 2.882812 C 24.894531 3.761719 25.960938 4.585938 26.78125 5.601562 C 29.558594 9.046875 31.84375 12.816406 33.816406 16.78125 Z M 33.816406 16.78125 "/>
<path style=" stroke:none;fill-rule:nonzero;fill:rgb(72.941176%,0%,89.019608%);fill-opacity:1;" d="M 35.902344 18.832031 C 35.667969 18.578125 35.480469 18.339844 35.261719 18.003906 C 35.183594 17.757812 35.164062 17.59375 35.09375 17.460938 C 33.507812 14.476562 32.023438 11.429688 30.289062 8.539062 C 28.890625 6.203125 27.28125 3.972656 24.894531 2.484375 C 24.761719 2.398438 24.691406 2.203125 24.59375 2.054688 C 26.769531 2.582031 28.359375 3.960938 29.75 5.621094 C 32.253906 8.617188 33.660156 12.21875 35.21875 15.730469 C 35.503906 16.371094 35.792969 17.015625 36.125 17.683594 C 36.324219 17.992188 36.484375 18.269531 36.660156 18.597656 C 36.820312 19.085938 36.960938 19.515625 37.105469 20.011719 C 36.722656 19.664062 36.332031 19.261719 35.902344 18.832031 Z M 35.902344 18.832031 "/>
<path style=" stroke:none;fill-rule:nonzero;fill:rgb(61.176471%,0%,78.823529%);fill-opacity:1;" d="M 24.539062 2.027344 C 24.691406 2.203125 24.761719 2.398438 24.894531 2.484375 C 27.28125 3.972656 28.890625 6.203125 30.289062 8.539062 C 32.023438 11.429688 33.507812 14.476562 35.09375 17.460938 C 35.164062 17.59375 35.183594 17.757812 35.234375 17.964844 C 35.011719 17.867188 34.78125 17.71875 34.503906 17.5625 C 34.253906 17.328125 34.058594 17.097656 33.84375 16.824219 C 31.84375 12.816406 29.558594 9.046875 26.78125 5.601562 C 25.960938 4.585938 24.894531 3.761719 23.902344 2.882812 C 23.671875 2.679688 23.304688 2.632812 22.9375 2.515625 C 22.875 2.515625 22.886719 2.511719 22.867188 2.476562 C 22.796875 2.410156 22.746094 2.382812 22.691406 2.355469 C 22.535156 2.074219 22.550781 1.949219 22.835938 1.9375 C 23.382812 1.917969 23.933594 1.976562 24.539062 2.027344 Z M 24.539062 2.027344 "/>
<path style=" stroke:none;fill-rule:nonzero;fill:rgb(41.568627%,0%,61.960784%);fill-opacity:1;" d="M 21.050781 2.710938 C 21.011719 2.652344 21.011719 2.609375 21.027344 2.511719 C 22.160156 2.796875 23.101562 3.421875 23.867188 4.390625 C 23.726562 4.800781 23.566406 5.171875 23.382812 5.59375 C 23.359375 5.648438 23.28125 5.644531 23.246094 5.644531 C 22.886719 5.074219 22.570312 4.5 22.203125 3.921875 C 21.800781 3.519531 21.449219 3.128906 21.050781 2.710938 Z M 21.050781 2.710938 "/>
<path style=" stroke:none;fill-rule:nonzero;fill:rgb(49.411765%,0.392157%,68.627451%);fill-opacity:1;" d="M 22.71875 2.394531 C 22.746094 2.382812 22.796875 2.410156 22.867188 2.476562 C 22.839844 2.488281 22.789062 2.457031 22.71875 2.394531 Z M 22.71875 2.394531 "/>
<path style=" stroke:none;fill-rule:nonzero;fill:rgb(72.941176%,0%,89.019608%);fill-opacity:1;" d="M 27.730469 23.988281 C 27.824219 24.167969 27.914062 24.347656 28.03125 24.566406 C 28.050781 24.644531 28.042969 24.671875 28.027344 24.742188 C 25.378906 26.019531 22.597656 26.753906 19.6875 27.28125 C 19.675781 26.914062 19.722656 26.535156 19.769531 26.089844 C 19.765625 26.027344 19.769531 26.03125 19.839844 26.03125 C 22.597656 25.667969 25.21875 25.046875 27.730469 23.988281 Z M 27.730469 23.988281 "/>
<path style=" stroke:none;fill-rule:nonzero;fill:rgb(61.176471%,0.392157%,78.823529%);fill-opacity:1;" d="M 37.015625 18.027344 C 36.976562 17.847656 36.910156 17.582031 37.007812 17.476562 C 38.347656 16.042969 39.710938 14.632812 41.117188 13.195312 C 41.136719 13.324219 41.15625 13.519531 41.070312 13.617188 C 39.742188 15.09375 38.402344 16.558594 37.015625 18.027344 Z M 37.015625 18.027344 "/>
<path style=" stroke:none;fill-rule:nonzero;fill:rgb(61.176471%,0.392157%,78.823529%);fill-opacity:1;" d="M 41.371094 13.007812 C 41.390625 12.875 41.46875 12.730469 41.589844 12.570312 C 41.566406 12.699219 41.496094 12.847656 41.371094 13.007812 Z M 41.371094 13.007812 "/>
<path style=" stroke:none;fill-rule:nonzero;fill:rgb(61.176471%,0%,78.823529%);fill-opacity:1;" d="M 27.726562 23.941406 C 25.21875 25.046875 22.597656 25.667969 19.839844 26.03125 C 19.820312 25.808594 19.867188 25.582031 19.917969 25.300781 C 22.230469 24.710938 24.539062 24.175781 26.847656 23.640625 C 27.046875 23.597656 27.25 23.558594 27.511719 23.519531 C 27.621094 23.644531 27.671875 23.765625 27.726562 23.941406 Z M 27.726562 23.941406 "/>
</g>
</svg>
